<svg xmlns="http://www.w3.org/2000/svg" version="1.1" xmlns:xlink="http://www.w3.org/1999/xlink" xmlns:svgjs="http://svgjs.dev/svgjs" width="1500" height="318" viewBox="0 0 1500 318"><g transform="matrix(1,0,0,1,17.539324976147213,-29.89605754058806)"><svg viewBox="0 0 396 84" data-background-color="#ffffff" preserveAspectRatio="xMidYMid meet" height="318" width="1500" xmlns="http://www.w3.org/2000/svg" xmlns:xlink="http://www.w3.org/1999/xlink"><g id="tight-bounds" transform="matrix(1,0,0,1,0.46949942446201476,13.007013332566174)"><svg viewBox="0 0 395.52 70.98634940068754" height="70.98634940068754" width="395.52"><g><svg viewBox="0 0 468.2342211331227 84.03680729853015" height="70.98634940068754" width="395.52"><g transform="matrix(1,0,0,1,72.71422113312276,11.614348910288903)"><svg viewBox="0 0 395.5199999999999 60.80810947795234" height="60.80810947795234" width="395.5199999999999"><g id="textblocktransform"><svg viewBox="0 0 395.5199999999999 60.80810947795234" height="60.80810947795234" width="395.5199999999999" id="textblock"><g><svg viewBox="0 0 395.5199999999999 60.80810947795234" height="60.80810947795234" width="395.5199999999999"><g transform="matrix(1,0,0,1,0,0)"><svg width="395.5199999999999" viewBox="3.9 -35 295.92 45.5" height="60.80810947795234" data-palette-color="#8dbdff"><path d="M22.6 0L22.6-17.9 6.7-17.9 6.7 0 3.9 0 3.9-35 6.7-35 6.7-20.65 22.6-20.65 22.6-35 25.4-35 25.4 0 22.6 0ZM51.95-9.2Q51.95-5 49.65-2.25 47.35 0.5 42.7 0.5L42.7 0.5Q38.05 0.5 35.67-2.27 33.3-5.05 33.3-9.2L33.3-9.2 33.3-15.8Q33.3-20.55 35.72-23.08 38.15-25.6 42.7-25.6L42.7-25.6Q47.05-25.6 49.5-22.98 51.95-20.35 51.95-15.8L51.95-15.8 51.95-9.2ZM49.15-15.8Q49.15-19.55 47.42-21.3 45.7-23.05 42.7-23.05L42.7-23.05Q39.6-23.05 37.85-21.3 36.1-19.55 36.1-15.8L36.1-15.8 36.1-8.7Q36.1-5.7 37.87-3.85 39.65-2 42.7-2L42.7-2Q45.8-2 47.47-3.83 49.15-5.65 49.15-8.7L49.15-8.7 49.15-15.8ZM85.95 0L85.95-17.15Q85.95-20.15 84.37-21.55 82.8-22.95 80.3-22.95L80.3-22.95Q78.34-22.95 75.95-22.1L75.95-22.1 74.09-21.2Q74.95-19.5 74.95-17.3L74.95-17.3 74.95 0 72.2 0 72.2-17.15Q72.2-20.2 70.62-21.58 69.05-22.95 66.5-22.95L66.5-22.95Q64.95-22.95 63.3-22.48 61.65-22 60.3-21.25L60.3-21.25 60.3 0 57.5 0 57.5-25.05 60.3-25.05 60.05-23.45Q63.35-25.4 66.8-25.4L66.8-25.4Q68.59-25.4 70.17-24.8 71.75-24.2 72.84-23.05L72.84-23.05Q73.55-23.45 74.95-24.15L74.95-24.15Q77.9-25.5 80.65-25.5L80.65-25.5Q84.2-25.5 86.45-23.33 88.7-21.15 88.7-17.3L88.7-17.3 88.7 0 85.95 0ZM108.84-1.75Q107.04-0.6 104.74 0 102.44 0.6 100.14 0.6L100.14 0.6Q96.44 0.6 94.27-1.23 92.09-3.05 92.09-6.7L92.09-6.7 92.09-16.95Q92.09-21 94.62-23.25 97.14-25.5 101.29-25.5L101.29-25.5Q105.44-25.5 107.77-23.28 110.09-21.05 110.09-17.1L110.09-17.1 110.09-10.6 94.89-9.75 94.89-6.7Q94.89-4.3 96.44-3.1 97.99-1.9 100.49-1.9L100.49-1.9Q103.99-1.9 107.74-3.9L107.74-3.9 108.84-1.75ZM107.29-17.45Q107.29-20.55 105.34-21.83 103.39-23.1 101.24-23.1L101.24-23.1Q98.49-23.1 96.69-21.6 94.89-20.1 94.89-16.9L94.89-16.9 94.89-12.5 107.29-13.1 107.29-17.45ZM116.49-6.35Q116.79-4.1 118.74-2.98 120.69-1.85 123.09-1.85L123.09-1.85Q125.34-1.85 127.19-2.88 129.04-3.9 129.04-6.2L129.04-6.2Q129.04-7.7 128.17-8.68 127.29-9.65 125.99-10.25 124.69-10.85 122.49-11.55L122.49-11.55Q120.04-12.35 118.49-13.05 116.94-13.75 115.79-15.03 114.64-16.3 114.44-18.25L114.44-18.25 114.39-18.85Q114.39-20.5 115.32-22.08 116.24-23.65 118.17-24.65 120.09-25.65 122.99-25.65L122.99-25.65Q124.59-25.65 125.82-25.33 127.04-25 127.74-24.65 128.44-24.3 128.59-24.2L128.59-24.2 127.64-21.9Q127.49-22 126.92-22.3 126.34-22.6 125.29-22.9 124.24-23.2 122.99-23.2L122.99-23.2Q120.59-23.2 118.89-22.08 117.19-20.95 117.19-18.95L117.19-18.95Q117.19-17.05 118.74-16.05 120.29-15.05 123.49-14.05L123.49-14.05Q126.19-13.15 127.84-12.35 129.49-11.55 130.67-10.08 131.84-8.6 131.84-6.25L131.84-6.25Q131.84-3.25 129.62-1.25 127.39 0.75 123.09 0.75L123.09 0.75Q120.24 0.75 118.17-0.23 116.09-1.2 115.02-2.8 113.94-4.4 113.84-6.35L113.84-6.35 116.49-6.35ZM141.09 0.65Q138.29-0.15 137.04-1.9 135.79-3.65 135.79-6.6L135.79-6.6 135.79-35 138.59-35 138.59-25.05 144.59-25.05 143.39-22.4 138.59-22.4 138.59-6.6Q138.59-2.6 141.89-1.5L141.89-1.5 141.09 0.65ZM166.84 0Q161.44 0.55 159.04 0.55L159.04 0.55Q153.79 0.55 150.69-1.4 147.59-3.35 147.59-8.45L147.59-8.45 147.59-12.6Q147.59-17.55 151.04-19.25L151.04-19.25Q152.69-20.1 155.24-20.1L155.24-20.1Q157.59-20.1 159.99-19.33 162.39-18.55 164.04-17.3L164.04-17.3Q164.04-20.05 162.44-21.68 160.84-23.3 156.29-23.3L156.29-23.3 156.44-25.45Q161.24-25.45 163.51-23.93 165.79-22.4 166.31-20.3 166.84-18.2 166.84-14.9L166.84-14.9 166.84 0ZM164.04-15.15Q161.99-16.1 159.66-16.8 157.34-17.5 155.39-17.5L155.39-17.5Q150.34-17.5 150.34-12.45L150.34-12.45 150.34-8.1Q150.34-4.85 152.59-3.38 154.84-1.9 158.99-1.9L158.99-1.9Q161.14-1.9 164.04-2.3L164.04-2.3 164.04-15.15ZM181.63 8.35Q184.98 7.1 184.98 3.15L184.98 3.15 184.98-2.45Q184.03-0.85 182.13-0.13 180.23 0.6 178.03 0.6L178.03 0.6Q173.63 0.6 171.26-1.78 168.88-4.15 168.88-8.8L168.88-8.8 168.88-25.05 171.58-25.05 171.58-8.3Q171.58-5.1 173.33-3.53 175.08-1.95 178.03-1.95L178.03-1.95Q181.13-1.95 183.03-3.5 184.93-5.05 184.93-8.3L184.93-8.3 184.93-18.15Q184.93-20.55 185.08-21.73 185.23-22.9 186.01-23.93 186.78-24.95 188.58-25.5L188.58-25.5 189.33-23.6Q187.63-22.85 187.63-20.1L187.63-20.1 187.63 3.05Q187.63 6.1 186.43 7.85 185.23 9.6 182.38 10.5L182.38 10.5 181.63 8.35ZM209.93 0L209.93-17.15Q209.93-20.2 208.16-21.58 206.38-22.95 203.58-22.95L203.58-22.95Q201.88-22.95 200.13-22.48 198.38-22 197.03-21.25L197.03-21.25 197.03 0 194.23 0 194.23-35 197.03-35 197.03-23.7Q198.28-24.55 200.03-25.03 201.78-25.5 203.68-25.5L203.68-25.5Q206.28-25.5 208.43-24.55L208.43-24.55Q210.43-23.65 211.56-21.85 212.68-20.05 212.68-17.3L212.68-17.3 212.68 0 209.93 0ZM236.78 0Q231.38 0.55 228.98 0.55L228.98 0.55Q223.73 0.55 220.63-1.4 217.53-3.35 217.53-8.45L217.53-8.45 217.53-12.6Q217.53-17.55 220.98-19.25L220.98-19.25Q222.63-20.1 225.18-20.1L225.18-20.1Q227.53-20.1 229.93-19.33 232.33-18.55 233.98-17.3L233.98-17.3Q233.98-20.05 232.38-21.68 230.78-23.3 226.23-23.3L226.23-23.3 226.38-25.45Q231.18-25.45 233.45-23.93 235.73-22.4 236.25-20.3 236.78-18.2 236.78-14.9L236.78-14.9 236.78 0ZM233.98-15.15Q231.93-16.1 229.6-16.8 227.28-17.5 225.33-17.5L225.33-17.5Q220.28-17.5 220.28-12.45L220.28-12.45 220.28-8.1Q220.28-4.85 222.53-3.38 224.78-1.9 228.93-1.9L228.93-1.9Q231.08-1.9 233.98-2.3L233.98-2.3 233.98-15.15ZM245.53 0L237.88-25.05 240.83-25.05 247.48-2.9 254.18-25.05 257.13-25.05 249.38 0 245.53 0ZM274.97-1.75Q273.17-0.6 270.87 0 268.57 0.6 266.27 0.6L266.27 0.6Q262.57 0.6 260.4-1.23 258.22-3.05 258.22-6.7L258.22-6.7 258.22-16.95Q258.22-21 260.75-23.25 263.27-25.5 267.42-25.5L267.42-25.5Q271.57-25.5 273.9-23.28 276.22-21.05 276.22-17.1L276.22-17.1 276.22-10.6 261.02-9.75 261.02-6.7Q261.02-4.3 262.57-3.1 264.12-1.9 266.62-1.9L266.62-1.9Q270.12-1.9 273.87-3.9L273.87-3.9 274.97-1.75ZM273.42-17.45Q273.42-20.55 271.47-21.83 269.52-23.1 267.37-23.1L267.37-23.1Q264.62-23.1 262.82-21.6 261.02-20.1 261.02-16.9L261.02-16.9 261.02-12.5 273.42-13.1 273.42-17.45ZM297.07 0L297.07-17.15Q297.07-20.2 295.3-21.58 293.52-22.95 290.72-22.95L290.72-22.95Q289.02-22.95 287.27-22.48 285.52-22 284.17-21.25L284.17-21.25 284.17 0 281.37 0 281.37-25.05 284.17-25.05 283.97-23.35Q285.17-24.4 287.02-24.93 288.87-25.45 290.87-25.45L290.87-25.45Q293.62-25.45 295.57-24.55L295.57-24.55Q297.57-23.65 298.7-21.85 299.82-20.05 299.82-17.3L299.82-17.3 299.82 0 297.07 0Z" opacity="1" transform="matrix(1,0,0,1,0,0)" fill="#8dbdff" class="wordmark-text-0" data-fill-palette-color="primary" id="text-0"></path></svg></g></svg></g></svg></g></svg></g><g><svg viewBox="0 0 58.35888588000569 84.03680729853015" height="84.03680729853015" width="58.35888588000569"><g><svg xmlns="http://www.w3.org/2000/svg" data-name="sanctuary city" viewBox="16.021120000000003 0.39911 68.75001 99.00002810234352" x="0" y="0" height="84.03680729853015" width="58.35888588000569" class="icon-icon-0" data-fill-palette-color="accent" id="icon-0"><path d="M50.396 0.399a34.414 34.414 0 0 0-34.375 34.375c0 0.73 0.031 1.455 0.076 2.178 0.02 0.328 0.047 0.656 0.075 0.986 0.021 0.218 0.042 0.438 0.066 0.655 2.636 26.272 30.841 58.456 32.098 59.878a2.749 2.749 0 0 0 4.12-0.001c1.257-1.421 29.462-33.604 32.098-59.878 0.023-0.218 0.045-0.438 0.066-0.655 0.028-0.33 0.056-0.658 0.075-0.986 0.045-0.723 0.076-1.448 0.076-2.178A34.414 34.414 0 0 0 50.396 0.399ZM50.396 64.399a29.489 29.489 0 0 1-19.316-7.191 29.841 29.841 0 0 1-5.939-6.968A29.618 29.618 0 1 1 50.396 64.399Z" fill="#8dbdff" data-fill-palette-color="accent"></path><path d="M25.547 47.928l9.244-5.143 0.048-0.022a6.846 6.846 0 0 1 4.397-0.32c0.455 0.105 0.761 0.199 0.761 0.2 0.454 0.146 12.932 4.171 14.142 4.561 1.283 0.414 2.443 1.061 2.745 2.532a3.159 3.159 0 0 1-0.874 2.845 3.192 3.192 0 0 1-3.12 0.74L42.666 50.084l-0.384 1.411 10.229 3.236a4.765 4.765 0 0 0 3.515-0.29 4.326 4.326 0 0 0 2.17-5.244l3.236-1.634c1.973-0.996 3.988-1.935 5.929-2.993 1.473-0.744 3.147-1.982 4.882-1.697a3.472 3.472 0 0 1 2.518 1.73A3.337 3.337 0 0 1 73.177 49.173L53.131 59.206a5.435 5.435 0 0 1-2.39 0.476c-1.349-0.031-14.086-3.852-16.507-4.547 0 0-0.771 0.507-1.852 1.217A28.31 28.31 0 0 1 25.547 47.928Z" fill="#8dbdff" data-fill-palette-color="accent"></path><path d="M57.471 19.095l-0.005-0.829h3.88v-1.773h6.014v1.773h4.107v23.072a4.687 4.687 0 0 0-1.936 0.464l-0.032 0.016V20.233H67.307V42.925l-1.908 0.963v-23.655H63.34v24.694l-1.908 0.964V20.233H59.378V46.928l-1.714 0.866c-0.06-0.093-0.126-0.183-0.194-0.273v-28.426ZM40.455 41.222c-0.016-0.005-0.104-0.031-0.232-0.067V24.323l2.805-5.733 2.853 5.733V41.482l-0.052 1.473ZM41.657 27.101a1.427 1.427 0 1 0 1.426-1.426A1.426 1.426 0 0 0 41.657 27.101ZM55.252 45.994l-8.219-2.651V28.432h9.269v18.054A4.613 4.613 0 0 0 55.252 45.994Zm-4.512-4.967H48.886v1.855h1.854Zm0-3.707H48.886v1.853h1.854Zm0-3.707H48.886v1.853h1.854Zm0-3.395H48.886v1.853h1.854Zm3.709 10.809h-1.854v1.855h1.854Zm0-3.707h-1.854v1.853h1.854Zm0-3.707h-1.854v1.853h1.854Zm0-3.395h-1.854v1.853h1.854Z" fill="#8dbdff" data-fill-palette-color="accent"></path><path d="M55.093 18.713v-0.903H53.246a3.086 3.086 0 0 0-0.6-1.468l1.3-1.301-0.639-0.638-1.305 1.305a3.087 3.087 0 0 0-1.463-0.581V13.256h-0.903v1.896a3.083 3.083 0 0 0-1.394 0.626l-1.374-1.375-0.639 0.638L47.623 16.436a3.088 3.088 0 0 0-0.53 1.374h-2.011v0.903H47.11a3.085 3.085 0 0 0 0.56 1.328L46.229 21.483l0.639 0.639 1.437-1.438a3.101 3.101 0 0 0 1.331 0.58v2.004h0.903V21.283a3.083 3.083 0 0 0 1.401-0.529L53.307 22.122l0.639-0.639-1.347-1.348a3.089 3.089 0 0 0 0.63-1.422h1.864ZM50.169 20.409a2.201 2.201 0 1 1 2.202-2.201A2.203 2.203 0 0 1 50.169 20.409Z" fill="#8dbdff" data-fill-palette-color="accent"></path></svg></g></svg></g></svg></g><defs></defs></svg><rect width="395.52" height="70.98634940068754" fill="none" stroke="none" visibility="hidden"></rect></g></svg></g></svg>